<svg aria-hidden="true" style="position: absolute; width: 0; height: 0; overflow: hidden;" version="1.1" xmlns="http://www.w3.org/2000/svg" xmlns:xlink="http://www.w3.org/1999/xlink">
<defs>
<symbol id="icon-power" viewBox="0 0 32 32">
<path d="M15.995 0v0c1.104 0 1.999 0.895 1.999 1.999v6.663c0 1.104-0.895 1.999-1.999 1.999v0c-1.104 0-1.999-0.895-1.999-1.999v-6.663c0-1.104 0.895-1.999 1.999-1.999z"></path>
<path d="M20.659 6.583v0c-0.010 0.671 0.328 1.299 0.894 1.66 5.024 3.070 6.608 9.631 3.539 14.655s-9.631 6.608-14.655 3.539-6.608-9.631-3.539-14.655c0.877-1.436 2.082-2.643 3.515-3.524 0.575-0.361 0.923-0.994 0.918-1.674v0c0.003-1.104-0.889-2.001-1.993-2.004-0.379-0.001-0.751 0.106-1.072 0.308-6.877 4.272-8.989 13.309-4.718 20.186s13.309 8.989 20.186 4.718 8.989-13.309 4.718-20.186c-1.189-1.914-2.803-3.529-4.718-4.718-0.937-0.591-2.175-0.311-2.766 0.626-0.202 0.32-0.309 0.691-0.309 1.069z"></path>
</symbol>

<symbol id="icon-cloud" viewBox="0 0 32 32">
<path d="M8.812 6.684c1.917-1.66 4.433-2.675 7.186-2.684h0.002c5.38 0 9.846 4 10.332 9.158 3.184 0.45 5.668 3.116 5.668 6.388 0 3.592-2.996 6.454-6.626 6.454h-17.812c-4.146 0-7.562-3.268-7.562-7.364 0-3.526 2.532-6.446 5.884-7.186 0.286-1.726 1.396-3.446 2.928-4.766zM10.118 8.198c-1.514 1.306-2.306 2.88-2.306 4.112v0.896l-0.89 0.098c-2.794 0.306-4.922 2.6-4.922 5.332 0 2.934 2.46 5.364 5.562 5.364h17.812c2.586 0 4.626-2.024 4.626-4.454 0-2.432-2.040-4.456-4.626-4.456h-1v-1c0.002-4.44-3.718-8.090-8.374-8.090-2.255 0.009-4.313 0.841-5.893 2.21l0.011-0.010z"></path>
</symbol>
<symbol id="icon-moon" viewBox="0 0 32 32">
<path d="M12 0.556c0.218 0.263 0.35 0.604 0.35 0.976 0 0.271-0.070 0.526-0.194 0.748l0.004-0.008c-1.105 1.992-1.756 4.367-1.756 6.895 0 0.009 0 0.017 0 0.026v-0.001c0 8.042 6.556 14.554 14.636 14.554 1.054 0 2.080-0.11 3.066-0.32 0.1-0.023 0.215-0.036 0.333-0.036 0.53 0 0.998 0.262 1.284 0.663l0.003 0.005c0.171 0.237 0.273 0.533 0.273 0.853 0 0.356-0.127 0.682-0.337 0.936l0.002-0.002c-3.086 3.769-7.739 6.156-12.95 6.156-0.009 0-0.019 0-0.028-0h0.001c-9.22 0-16.688-7.428-16.688-16.58 0-6.888 4.228-12.796 10.248-15.3 0.173-0.075 0.374-0.119 0.585-0.119 0.469 0 0.889 0.215 1.164 0.552l0.002 0.003zM9.716 2.622c-4.594 2.501-7.661 7.291-7.666 12.797v0.001c0 8.040 6.558 14.552 14.638 14.552 0.008 0 0.016 0 0.025 0 4.060 0 7.733-1.653 10.384-4.323l0.001-0.001c-0.674 0.084-1.36 0.126-2.058 0.126-9.22 0-16.686-7.428-16.686-16.58 0-2.334 0.484-4.556 1.362-6.572z"></path>
<path d="M21.588 6.296c0.059-0.174 0.221-0.298 0.412-0.298s0.353 0.123 0.411 0.295l0.001 0.003 0.774 2.324c0.346 1.036 1.158 1.848 2.194 2.194l2.324 0.774c0.174 0.059 0.298 0.221 0.298 0.412s-0.123 0.353-0.295 0.411l-0.003 0.001-2.324 0.774c-1.038 0.353-1.841 1.156-2.187 2.17l-0.007 0.024-0.774 2.324c-0.059 0.174-0.221 0.298-0.412 0.298s-0.353-0.123-0.411-0.295l-0.001-0.003-0.774-2.324c-0.353-1.038-1.156-1.841-2.17-2.187l-0.024-0.007-2.324-0.774c-0.174-0.059-0.298-0.221-0.298-0.412s0.123-0.353 0.295-0.411l0.003-0.001 2.324-0.774c1.038-0.353 1.841-1.156 2.187-2.17l0.007-0.024 0.774-2.324zM27.726 0.198c0.041-0.114 0.148-0.195 0.274-0.195s0.233 0.081 0.273 0.193l0.001 0.002 0.516 1.548c0.23 0.692 0.772 1.234 1.464 1.464l1.548 0.516c0.114 0.041 0.195 0.148 0.195 0.274s-0.081 0.233-0.193 0.273l-0.002 0.001-1.548 0.516c-0.693 0.235-1.229 0.771-1.459 1.448l-0.005 0.016-0.516 1.548c-0.041 0.114-0.148 0.195-0.274 0.195s-0.233-0.081-0.273-0.193l-0.001-0.002-0.516-1.548c-0.235-0.693-0.771-1.229-1.448-1.459l-0.016-0.005-1.548-0.516c-0.114-0.041-0.195-0.148-0.195-0.274s0.081-0.233 0.193-0.273l0.002-0.001 1.548-0.516c0.692-0.23 1.234-0.772 1.464-1.464l0.516-1.546z"></path>
</symbol>
<symbol id="icon-rain" viewBox="0 0 32 32">
<path d="M8.316 24.050c0.401 0.137 0.684 0.51 0.684 0.949 0 0.114-0.019 0.223-0.054 0.324l0.002-0.007-1 3c-0.147 0.382-0.51 0.648-0.936 0.648-0.552 0-1-0.448-1-1 0-0.1 0.015-0.196 0.042-0.287l-0.002 0.007 1-3c0.136-0.401 0.509-0.685 0.949-0.685 0.113 0 0.221 0.019 0.322 0.053l-0.007-0.002zM14.316 24.050c0.401 0.137 0.684 0.51 0.684 0.949 0 0.114-0.019 0.223-0.054 0.324l0.002-0.007-2 6c-0.147 0.382-0.51 0.648-0.936 0.648-0.552 0-1-0.448-1-1 0-0.1 0.015-0.196 0.042-0.287l-0.002 0.007 2-6c0.136-0.401 0.509-0.685 0.949-0.685 0.113 0 0.221 0.019 0.322 0.053l-0.007-0.002zM20.316 24.050c0.401 0.137 0.684 0.51 0.684 0.949 0 0.114-0.019 0.223-0.054 0.324l0.002-0.007-1 3c-0.147 0.382-0.51 0.648-0.936 0.648-0.552 0-1-0.448-1-1 0-0.1 0.015-0.196 0.042-0.287l-0.002 0.007 1-3c0.136-0.401 0.509-0.685 0.949-0.685 0.113 0 0.221 0.019 0.322 0.053l-0.007-0.002zM26.316 24.050c0.401 0.137 0.684 0.51 0.684 0.949 0 0.114-0.019 0.223-0.054 0.324l0.002-0.007-2 6c-0.125 0.419-0.508 0.72-0.96 0.72-0.552 0-1-0.448-1-1 0-0.126 0.023-0.247 0.066-0.359l-0.002 0.007 2-6c0.136-0.401 0.509-0.685 0.949-0.685 0.113 0 0.221 0.019 0.322 0.053l-0.007-0.002zM26.81 10.054c-0.942-4.625-4.976-8.056-9.811-8.056-4.095 0-7.615 2.46-9.162 5.984l-0.025 0.064c-0.24-0.029-0.519-0.046-0.801-0.046-3.866 0-7 3.134-7 7 0 3.862 3.128 6.994 6.989 7h19.001c0.002 0 0.004 0 0.007 0 3.314 0 6-2.686 6-6 0-3.030-2.247-5.536-5.165-5.942l-0.032-0.004zM17 4c0 0 0.001 0 0.002 0 4.105 0 7.487 3.091 7.947 7.073l0.003 0.037c0.057 0.503 0.48 0.89 0.994 0.89 0.002 0 0.004 0 0.006-0h0.048c2.209 0 4 1.791 4 4s-1.791 4-4 4v0h-19c-2.76-0.001-4.997-2.239-4.997-5s2.239-5 5-5c0.429 0 0.845 0.054 1.242 0.155l-0.035-0.008c0.073 0.019 0.156 0.030 0.242 0.030 0.441 0 0.815-0.285 0.948-0.681l0.002-0.007c1.087-3.216 4.077-5.49 7.598-5.49h0z"></path>
</symbol>
<symbol id="icon-sun" viewBox="0 0 32 32">
<path d="M16 22c-3.314 0-6-2.686-6-6s2.686-6 6-6v0c3.314 0 6 2.686 6 6s-2.686 6-6 6v0zM16 24c4.418 0 8-3.582 8-8s-3.582-8-8-8v0c-4.418 0-8 3.582-8 8s3.582 8 8 8v0zM16 0c0.552 0 1 0.448 1 1v0 4c0 0.552-0.448 1-1 1s-1-0.448-1-1v0-4c0-0.552 0.448-1 1-1v0zM16 26c0.552 0 1 0.448 1 1v0 4c0 0.552-0.448 1-1 1s-1-0.448-1-1v0-4c0-0.552 0.448-1 1-1v0zM32 16c0 0.552-0.448 1-1 1v0h-4c-0.552 0-1-0.448-1-1s0.448-1 1-1v0h4c0.552 0 1 0.448 1 1v0zM6 16c0 0.552-0.448 1-1 1v0h-4c-0.552 0-1-0.448-1-1s0.448-1 1-1v0h4c0.552 0 1 0.448 1 1v0zM27.314 4.686c0.181 0.181 0.293 0.431 0.293 0.707s-0.112 0.526-0.293 0.707l-2.828 2.83c-0.181 0.181-0.431 0.293-0.707 0.293-0.553 0-1.001-0.448-1.001-1.001 0-0.277 0.112-0.527 0.294-0.708v0l2.828-2.828c0.181-0.181 0.431-0.293 0.707-0.293s0.526 0.112 0.707 0.293v0zM8.928 23.072c0.181 0.181 0.293 0.431 0.293 0.707s-0.112 0.526-0.293 0.707l-2.828 2.828c-0.18 0.174-0.425 0.281-0.695 0.281-0.552 0-1-0.448-1-1 0-0.27 0.107-0.515 0.281-0.695l2.828-2.828c0.181-0.181 0.431-0.293 0.707-0.293s0.526 0.112 0.707 0.293v0zM27.314 27.314c-0.181 0.181-0.431 0.293-0.707 0.293s-0.526-0.112-0.707-0.293l-2.828-2.828c-0.174-0.18-0.281-0.425-0.281-0.695 0-0.552 0.448-1 1-1 0.27 0 0.515 0.107 0.695 0.281l2.828 2.828c0.181 0.181 0.293 0.431 0.293 0.707s-0.112 0.526-0.293 0.707v0zM8.928 8.93c-0.181 0.181-0.431 0.293-0.707 0.293s-0.526-0.112-0.707-0.293v0l-2.828-2.83c-0.188-0.182-0.305-0.437-0.305-0.719 0-0.552 0.448-1 1-1 0.282 0 0.537 0.117 0.719 0.305l2.828 2.828c0.181 0.181 0.294 0.431 0.294 0.708s-0.112 0.527-0.294 0.708l-0 0z"></path>
</symbol>
<symbol id="icon-sunrise" viewBox="0 0 32 32">
<path d="M16 6c0.552 0 1 0.448 1 1v0 4c0 0.552-0.448 1-1 1s-1-0.448-1-1v0-4c0-0.552 0.448-1 1-1v0zM32 22c0 0.552-0.448 1-1 1v0h-4c-0.552 0-1-0.448-1-1s0.448-1 1-1v0h4c0.552 0 1 0.448 1 1v0zM5 23c0.552 0 1-0.448 1-1s-0.448-1-1-1v0h-4c-0.552 0-1 0.448-1 1s0.448 1 1 1v0h4zM27.314 10.686c0.181 0.181 0.293 0.431 0.293 0.707s-0.112 0.526-0.293 0.707l-2.828 2.828c-0.182 0.188-0.437 0.305-0.719 0.305-0.552 0-1-0.448-1-1 0-0.282 0.117-0.537 0.305-0.719l2.828-2.828c0.181-0.181 0.431-0.293 0.707-0.293s0.526 0.112 0.707 0.293v0zM7.514 14.928c0.18 0.174 0.425 0.281 0.695 0.281 0.552 0 1-0.448 1-1 0-0.27-0.107-0.515-0.281-0.695l-2.828-2.828c-0.182-0.188-0.437-0.305-0.719-0.305-0.552 0-1 0.448-1 1 0 0.282 0.117 0.537 0.305 0.719l2.828 2.828zM16 14c-4.418 0-8 3.582-8 8v0c0 0.552 0.448 1 1 1v0h14c0.552 0 1-0.448 1-1v0c0-4.418-3.582-8-8-8v0zM16 16c0.001 0 0.001 0 0.002 0 2.96 0 5.42 2.144 5.911 4.964l0.005 0.036h-11.838c0.496-2.856 2.956-5 5.916-5 0.001 0 0.003 0 0.004 0h-0z"></path>
</symbol>
<symbol id="icon-snow" viewBox="0 0 32 32">
<path d="M26.81 8.554c-0.942-4.625-4.976-8.056-9.811-8.056-4.095 0-7.615 2.461-9.162 5.984l-0.025 0.064c-0.24-0.029-0.519-0.046-0.801-0.046-3.866 0-7 3.134-7 7 0 3.862 3.128 6.994 6.989 7h19.001c0.002 0 0.004 0 0.007 0 3.314 0 6-2.686 6-6 0-3.030-2.247-5.536-5.165-5.942l-0.032-0.004zM17 2.5c0 0 0.001 0 0.002 0 4.105 0 7.487 3.091 7.947 7.073l0.003 0.037c0.057 0.503 0.48 0.89 0.994 0.89 0.002 0 0.004 0 0.006-0h0.048c2.209 0.001 3.999 1.791 3.999 4s-1.791 4-4 4c-0 0-0.001 0-0.001 0h-18.998c-2.76-0.001-4.997-2.239-4.997-5s2.239-5 5-5c0.429 0 0.845 0.054 1.242 0.155l-0.035-0.008c0.073 0.019 0.156 0.030 0.242 0.030 0.441 0 0.815-0.285 0.948-0.681l0.002-0.007c1.087-3.216 4.077-5.49 7.598-5.49h0zM5.25 23c0.276 0 0.5 0.224 0.5 0.5v0 1.14l1.002-0.574c0.069-0.038 0.151-0.060 0.238-0.060 0.276 0 0.5 0.224 0.5 0.5 0 0.181-0.096 0.339-0.24 0.427l-0.992 0.567 0.99 0.566c0.146 0.089 0.242 0.247 0.242 0.428 0 0.276-0.224 0.5-0.5 0.5-0.087 0-0.169-0.022-0.24-0.061l0.003 0.001-1.002-0.572v1.138c0 0.276-0.224 0.5-0.5 0.5s-0.5-0.224-0.5-0.5v0-1.14l-1.002 0.574c-0.069 0.038-0.151 0.060-0.238 0.060-0.276 0-0.5-0.224-0.5-0.5 0-0.181 0.096-0.339 0.24-0.427l0.992-0.567-0.99-0.566c-0.146-0.089-0.242-0.247-0.242-0.428 0-0.276 0.224-0.5 0.5-0.5 0.087 0 0.169 0.022 0.24 0.061l-0.003-0.001 1.002 0.572v-1.138c0-0.276 0.224-0.5 0.5-0.5v0zM10.75 27c0.276 0 0.5 0.224 0.5 0.5v0 1.14l1.002-0.574c0.069-0.038 0.151-0.060 0.238-0.060 0.276 0 0.5 0.224 0.5 0.5 0 0.181-0.096 0.339-0.24 0.427l-0.992 0.567 0.99 0.566c0.146 0.089 0.242 0.247 0.242 0.428 0 0.276-0.224 0.5-0.5 0.5-0.087 0-0.169-0.022-0.24-0.061l0.003 0.001-1.002-0.572v1.138c0 0.276-0.224 0.5-0.5 0.5s-0.5-0.224-0.5-0.5v0-1.14l-1.002 0.574c-0.069 0.038-0.151 0.060-0.238 0.060-0.276 0-0.5-0.224-0.5-0.5 0-0.181 0.096-0.339 0.24-0.427l0.992-0.567-0.99-0.566c-0.146-0.089-0.242-0.247-0.242-0.428 0-0.276 0.224-0.5 0.5-0.5 0.087 0 0.169 0.022 0.24 0.061l-0.003-0.001 1.002 0.572v-1.138c0-0.276 0.224-0.5 0.5-0.5v0zM21.75 27c0.276 0 0.5 0.224 0.5 0.5v0 1.14l1.002-0.574c0.069-0.038 0.151-0.060 0.238-0.060 0.276 0 0.5 0.224 0.5 0.5 0 0.181-0.096 0.339-0.24 0.427l-0.992 0.567 0.99 0.566c0.146 0.089 0.242 0.247 0.242 0.428 0 0.276-0.224 0.5-0.5 0.5-0.087 0-0.169-0.022-0.24-0.061l0.003 0.001-1.002-0.572v1.138c0 0.276-0.224 0.5-0.5 0.5s-0.5-0.224-0.5-0.5v0-1.14l-1.002 0.574c-0.069 0.038-0.151 0.060-0.238 0.060-0.276 0-0.5-0.224-0.5-0.5 0-0.181 0.096-0.339 0.24-0.427l0.992-0.567-0.99-0.566c-0.146-0.089-0.242-0.247-0.242-0.428 0-0.276 0.224-0.5 0.5-0.5 0.087 0 0.169 0.022 0.24 0.061l-0.003-0.001 1.002 0.572v-1.138c0-0.276 0.224-0.5 0.5-0.5v0zM16.25 23c0.276 0 0.5 0.224 0.5 0.5v0 1.14l1.002-0.574c0.069-0.038 0.151-0.060 0.238-0.060 0.276 0 0.5 0.224 0.5 0.5 0 0.181-0.096 0.339-0.24 0.427l-0.992 0.567 0.99 0.566c0.146 0.089 0.242 0.247 0.242 0.428 0 0.276-0.224 0.5-0.5 0.5-0.087 0-0.169-0.022-0.24-0.061l0.003 0.001-1.002-0.572v1.138c0 0.276-0.224 0.5-0.5 0.5s-0.5-0.224-0.5-0.5v0-1.14l-1.002 0.574c-0.069 0.038-0.151 0.060-0.238 0.060-0.276 0-0.5-0.224-0.5-0.5 0-0.181 0.096-0.339 0.24-0.427l0.992-0.567-0.99-0.566c-0.146-0.089-0.242-0.247-0.242-0.428 0-0.276 0.224-0.5 0.5-0.5 0.087 0 0.169 0.022 0.24 0.061l-0.003-0.001 1.002 0.572v-1.138c0-0.276 0.224-0.5 0.5-0.5v0zM27.25 23c0.276 0 0.5 0.224 0.5 0.5v0 1.14l1.002-0.574c0.069-0.038 0.151-0.060 0.238-0.060 0.276 0 0.5 0.224 0.5 0.5 0 0.181-0.096 0.339-0.24 0.427l-0.992 0.567 0.99 0.566c0.146 0.089 0.242 0.247 0.242 0.428 0 0.276-0.224 0.5-0.5 0.5-0.087 0-0.169-0.022-0.24-0.061l0.003 0.001-1.002-0.572v1.138c0 0.276-0.224 0.5-0.5 0.5s-0.5-0.224-0.5-0.5v0-1.14l-1.002 0.574c-0.069 0.038-0.151 0.060-0.238 0.060-0.276 0-0.5-0.224-0.5-0.5 0-0.181 0.096-0.339 0.24-0.427l0.992-0.567-0.99-0.566c-0.146-0.089-0.242-0.247-0.242-0.428 0-0.276 0.224-0.5 0.5-0.5 0.087 0 0.169 0.022 0.24 0.061l-0.003-0.001 1.002 0.572v-1.138c0-0.276 0.224-0.5 0.5-0.5v0z"></path>
</symbol>
<symbol id="icon-deer" viewBox="0 0 32 32">
<path d="M16 22.185c-2.36 0-4.208 1.393-4.208 3.17s1.849 3.172 4.208 3.172c2.36 0 4.208-1.393 4.208-3.172s-1.848-3.17-4.208-3.17zM16 26.365c-1.23 0-2.046-0.608-2.046-1.009s0.816-1.008 2.046-1.008c1.23 0 2.046 0.607 2.046 1.008s-0.816 1.009-2.046 1.009z"></path>
<path d="M12.631 19.382c0.161-0.161 0.254-0.384 0.254-0.612 0-0.227-0.093-0.45-0.254-0.612-0.16-0.16-0.384-0.253-0.611-0.253-0.228 0-0.451 0.093-0.612 0.253-0.161 0.162-0.253 0.385-0.253 0.612 0 0.228 0.092 0.451 0.253 0.612s0.385 0.253 0.612 0.253c0.227 0 0.45-0.092 0.611-0.253z"></path>
<path d="M19.98 17.905c-0.228 0-0.451 0.093-0.612 0.253-0.161 0.161-0.253 0.385-0.253 0.612 0 0.228 0.092 0.451 0.253 0.612s0.384 0.253 0.612 0.253c0.227 0 0.45-0.092 0.612-0.253 0.161-0.161 0.253-0.384 0.253-0.612 0-0.227-0.092-0.451-0.253-0.612-0.161-0.16-0.384-0.253-0.612-0.253z"></path>
<path d="M31.929 12.338c-0.139-0.363-0.462-0.624-0.847-0.683-0.1-0.015-2.47-0.374-4.17-0.374-0.768 0-1.305 0.072-1.69 0.228-0.886 0.359-2.087 1.35-2.73 2.487-0.468-0.492-0.975-0.92-1.518-1.281l4.427-4.436c0.202-0.203 0.316-0.477 0.316-0.764v-1.754l3.694-2.497c0.495-0.334 0.625-1.006 0.29-1.501s-1.006-0.625-1.501-0.29l-2.483 1.678v-1.906c0-0.597-0.484-1.081-1.081-1.081s-1.081 0.484-1.081 1.081v1.906l-2.483-1.678c-0.495-0.334-1.167-0.205-1.501 0.29s-0.204 1.167 0.29 1.501l3.694 2.496v1.306l-0.997 0.999-3.572-2.414c-0.495-0.334-1.167-0.204-1.501 0.29s-0.204 1.167 0.29 1.501l3.227 2.181-2.092 2.096c-0.904-0.292-1.877-0.441-2.91-0.441-1.006 0-1.954 0.141-2.836 0.418l-2.108-2.113 3.169-2.142c0.495-0.334 0.625-1.006 0.29-1.501s-1.007-0.625-1.501-0.29l-3.513 2.374-1.055-1.057v-1.209l3.694-2.496c0.495-0.334 0.625-1.006 0.29-1.501s-1.007-0.625-1.501-0.29l-2.483 1.678v-2.003c0-0.597-0.484-1.081-1.081-1.081s-1.081 0.484-1.081 1.081v2.003l-2.483-1.678c-0.495-0.334-1.167-0.204-1.501 0.29s-0.204 1.167 0.29 1.501l3.694 2.496v1.656c0 0.286 0.114 0.561 0.316 0.764l4.486 4.495c-0.565 0.368-1.091 0.808-1.575 1.318-0.68-1.18-1.967-2.175-2.732-2.485-0.385-0.156-0.921-0.228-1.69-0.228-1.7 0-4.070 0.359-4.17 0.374-0.385 0.059-0.708 0.319-0.847 0.683s-0.072 0.773 0.175 1.074c0.665 0.807 2.931 3.48 4.158 3.977 0.601 0.243 1.454 0.388 2.283 0.388 0.172 0 0.337-0.007 0.497-0.019-0.755 1.916-1.173 4.149-1.173 6.392 0 2.664 1.071 4.776 3.097 6.106 1.695 1.114 4.014 1.678 6.893 1.678s5.197-0.565 6.892-1.678c2.026-1.331 3.097-3.442 3.097-6.106 0-2.242-0.418-4.476-1.173-6.392 0.16 0.012 0.325 0.019 0.497 0.019 0.828 0 1.682-0.145 2.284-0.388 1.226-0.497 3.492-3.17 4.157-3.977 0.247-0.3 0.314-0.71 0.175-1.074zM5.217 15.385c-0.305-0.13-1.092-0.87-1.982-1.835 0.619-0.060 1.287-0.107 1.853-0.107 0.674 0 0.873 0.068 0.878 0.070 0.734 0.297 1.738 1.43 1.825 1.916-0.144 0.077-0.51 0.185-1.104 0.185-0.623-0-1.189-0.116-1.471-0.23zM21.705 28.448c-1.318 0.866-3.291 1.323-5.705 1.323s-4.388-0.457-5.705-1.323c-1.428-0.938-2.121-2.344-2.121-4.299 0-3.976 1.649-10.706 7.827-10.706s7.827 6.729 7.827 10.706c0 1.955-0.694 3.361-2.121 4.299zM26.785 15.384c-0.283 0.115-0.849 0.23-1.472 0.23-0.593 0-0.96-0.108-1.104-0.185 0.087-0.486 1.091-1.619 1.822-1.915 0.008-0.003 0.207-0.071 0.881-0.071 0.565 0 1.232 0.047 1.85 0.106-0.848 0.918-1.657 1.698-1.977 1.835z"></path>
</symbol>
<symbol id="icon-rocket" viewBox="0 0 32 32">
<path d="M4.966 11.269l4.753-1.677c-0.981 1.321-1.824 2.74-2.515 4.234l-2.237-2.557zM1.663 11.545l4.403 5.032-0.638 1.595c-0.198 0.495-0.082 1.061 0.295 1.438l0.418 0.418c-2.271 2.561-3.525 5.239-4.74 8.884-0.16 0.479-0.035 1.007 0.322 1.364s0.885 0.482 1.364 0.322c3.646-1.215 6.324-2.469 8.884-4.74l0.418 0.418c0.377 0.377 0.943 0.493 1.438 0.295l1.595-0.638 5.032 4.403c0.333 0.291 0.788 0.398 1.216 0.286s0.772-0.429 0.919-0.846l3.981-11.281c2.625-3.106 4.095-7.063 4.095-11.189v-4.641c0-0.736-0.597-1.333-1.333-1.333h-4.641c-4.125 0-8.083 1.47-11.189 4.095l-11.281 3.981c-0.417 0.147-0.734 0.492-0.846 0.919s-0.005 0.883 0.286 1.216zM4.914 27.086c0.837-2.021 1.776-3.629 3.118-5.169l2.052 2.051c-1.54 1.342-3.149 2.281-5.169 3.118zM13.654 23.769l-5.423-5.423 0.947-2.366c0.869-2.171 2.088-4.185 3.61-5.961l0.769-0.897c2.786-3.251 6.854-5.122 11.136-5.122h3.308v3.308c0 4.282-1.871 8.349-5.122 11.136l-0.897 0.769c-1.776 1.522-3.789 2.741-5.961 3.61l-2.366 0.947zM20.731 27.034l-2.557-2.237c1.494-0.691 2.913-1.534 4.234-2.516l-1.677 4.753zM20 10.667c0-0.736 0.597-1.333 1.333-1.333s1.333 0.597 1.333 1.333c0 0.736-0.597 1.333-1.333 1.333s-1.333-0.597-1.333-1.333zM21.333 6.667c-2.209 0-4 1.791-4 4s1.791 4 4 4c2.209 0 4-1.791 4-4s-1.791-4-4-4z"></path>
</symbol>
<symbol id="icon-comet" viewBox="0 0 32 32">
<path d="M30.276 14.211c0.241 0.241 0.39 0.575 0.39 0.943s-0.149 0.701-0.39 0.943l-11.6 11.6c-1.835 1.816-4.36 2.938-7.147 2.938-5.613 0-10.163-4.55-10.163-10.163 0-2.79 1.124-5.317 2.944-7.153l8.505-8.503c0.243-0.251 0.583-0.407 0.959-0.407 0.736 0 1.333 0.597 1.333 1.333 0 0.376-0.156 0.716-0.407 0.959l-8.506 8.5c-1.357 1.357-2.196 3.232-2.196 5.303 0 4.142 3.357 7.499 7.499 7.499 2.071 0 3.946-0.839 5.303-2.196v0l11.6-11.6c0.241-0.237 0.571-0.383 0.935-0.383 0.367 0 0.7 0.148 0.941 0.388l-0-0zM15.113 16.885c0.926 0.926 1.499 2.206 1.499 3.619 0 2.826-2.291 5.117-5.117 5.117s-5.117-2.291-5.117-5.117c0-1.413 0.573-2.693 1.499-3.619v0c0.927-0.924 2.206-1.496 3.618-1.496s2.691 0.572 3.618 1.496l-0-0zM13.228 18.771c-0.444-0.444-1.056-0.718-1.733-0.718-1.354 0-2.451 1.098-2.451 2.451 0 0.677 0.274 1.29 0.718 1.733v0c0.449 0.431 1.060 0.696 1.733 0.696s1.284-0.265 1.734-0.697l-0.001 0.001c0.443-0.444 0.717-1.057 0.717-1.733s-0.274-1.29-0.717-1.733l0 0zM24.391 1.724l-10.267 10.267c-0.267 0.245-0.434 0.595-0.434 0.984 0 0.736 0.597 1.333 1.333 1.333 0.393 0 0.746-0.17 0.99-0.441l0.001-0.001 10.267-10.267c0.232-0.24 0.374-0.566 0.374-0.926 0-0.736-0.597-1.333-1.333-1.333-0.36 0-0.687 0.143-0.927 0.375l0-0zM21.724 14.276c0.241 0.241 0.575 0.39 0.943 0.39s0.701-0.149 0.943-0.39l5.333-5.333c0.251-0.243 0.407-0.583 0.407-0.959 0-0.736-0.597-1.333-1.333-1.333-0.376 0-0.716 0.156-0.959 0.407l-5.334 5.334c-0.241 0.241-0.39 0.575-0.39 0.943s0.149 0.701 0.39 0.943v0zM5.333 6.667c0-0.736-0.597-1.333-1.333-1.333s-1.333 0.597-1.333 1.333c0 0.736 0.597 1.333 1.333 1.333v0c0.736 0 1.333-0.597 1.333-1.333v0zM28 26c0-1.105-0.895-2-2-2s-2 0.895-2 2c0 1.105 0.895 2 2 2v0c1.105 0 2-0.895 2-2v0z"></path>
</symbol>
</defs>
</svg>
